<?xml version="1.0" encoding="UTF-8"?>
<svg xmlns="http://www.w3.org/2000/svg" version="1.1" viewBox="0 0 40 40">
  <path d="M27.1,20.6c-1.1,0-2.1-.2-3-.5h0c0,.5-.4.8-.8.8h-2.6c-.4,0-.8-.4-.8-.8v-2.6c-1.8-1.8-2.9-4.4-2.9-7.2s.3-2.9.9-4.2H6.7c-.9,0-1.6.7-1.6,1.6v30.1h-1.3c-.4,0-.8.4-.8.8v1.3h29.5v-1.3c0-.4-.4-.8-.8-.8h-1.3v-17.8c-1,.4-2.1.6-3.3.6h0ZM11.4,11.2c0-.4.4-.8.8-.8h2.6c.4,0,.8.4.8.8v2.6c0,.4-.4.8-.8.8h-2.6c-.4,0-.8-.4-.8-.8v-2.6ZM11.4,17.6c0-.4.4-.8.8-.8h2.6c.4,0,.8.4.8.8v2.6c0,.4-.4.8-.8.8h-2.6c-.4,0-.8-.4-.8-.8v-2.6ZM14.9,27.3h-2.6c-.4,0-.8-.4-.8-.8v-2.6c0-.4.4-.8.8-.8h2.6c.4,0,.8.4.8.8v2.6c0,.4-.4.8-.8.8ZM19.9,37.9h-4.2v-5.5c0-.4.4-.8.8-.8h2.6c.4,0,.8.4.8.8v5.5ZM24.1,26.5c0,.4-.4.8-.8.8h-2.6c-.4,0-.8-.4-.8-.8v-2.6c0-.4.4-.8.8-.8h2.6c.4,0,.8.4.8.8v2.6Z"/>
  <path d="M27.1,21.1c-1.1,0-2.1-.2-3.2-.5-1.7-.5-3.2-1.4-4.4-2.7-2-2-3.1-4.7-3.1-7.5s.3-3,1-4.4C19.1,2.2,23-.2,27.1-.2s10.7,4.8,10.7,10.7-2.9,8.6-7.2,10.1c-1.1.4-2.3.6-3.5.6ZM27.1.8c-3.8,0-7.2,2.2-8.8,5.7-.6,1.3-.9,2.6-.9,4,0,2.6,1,5,2.8,6.8,1.1,1.1,2.5,2,4,2.4,1.9.6,4,.6,6,0,3.9-1.3,6.5-5,6.5-9.2S32.5.8,27.1.8Z"/>
  <path d="M27.6,3.2c.7,0,1.2.4,1.3,1.1v.3c.3,1.1,1.4,1.7,2.5,1.4h.3c.6-.3,1.3,0,1.6.5l.5.8c.3.5.2,1.2-.3,1.7l-.2.2c-.9.7-.9,2,0,2.7l.2.2c.5.4.6,1.1.3,1.7l-.5.8c-.3.5-1,.8-1.6.6h-.3c-1.1-.5-2.2.2-2.4,1.3v.3c-.2.6-.7,1.1-1.4,1.1h-1c-.7,0-1.2-.4-1.3-1.1v-.3c-.3-1.1-1.4-1.7-2.5-1.4h-.3c-.6.3-1.3,0-1.6-.5l-.5-.8c-.3-.5-.2-1.2.3-1.7l.2-.2c.9-.7.9-2,0-2.7l-.2-.2c-.5-.4-.6-1.1-.3-1.7l.5-.8c.3-.5,1-.8,1.6-.6h.3c1.1.5,2.2-.2,2.4-1.3v-.3c.2-.6.7-1.1,1.4-1.1h1ZM27.1,12.5c1.1,0,2.1-.9,2.1-2.1s-.9-2.1-2.1-2.1-2.1.9-2.1,2.1.9,2.1,2.1,2.1Z"/>
</svg>