<?xml version="1.0" encoding="UTF-8"?>
<svg xmlns="http://www.w3.org/2000/svg" version="1.1" xmlns:xlink="http://www.w3.org/1999/xlink" viewBox="0 0 40 42">
  <path d="M39,4.8H10.5c-.2,0-.5.1-.7.3L.3,14.6c-.2.2-.3.4-.3.7v19.1c0,.5.4,1,.9,1h38.1c.5,0,1-.4,1-1V5.7c0-.5-.4-1-1-1ZM38.1,33.3H1.9v-17.1h8.6c.5,0,1-.4,1-1V6.7h26.7v26.7h0Z"/>
  <path d="M34.2,28.7h-.8V11c0-.5-.4-.9-.9-.9h-13c-.5,0-.9.4-.9.9v17.6h-.8c-.3,0-.5.2-.5.5v.8h17.3v-.8c0-.3-.2-.5-.5-.5h0ZM22.3,13c0-.3.2-.5.5-.5h1.5c.3,0,.5.2.5.5v1.6c0,.3-.2.5-.5.5h-1.5c-.3,0-.5-.2-.5-.5v-1.6ZM22.3,16.8c0-.3.2-.5.5-.5h1.5c.3,0,.5.2.5.5v1.5c0,.3-.2.5-.5.5h-1.5c-.3,0-.5-.2-.5-.5v-1.5ZM24.3,22.5h-1.5c-.3,0-.5-.2-.5-.5v-1.6c0-.3.2-.5.5-.5h1.5c.3,0,.5.2.5.5v1.6c0,.3-.2.5-.5.5ZM27.2,28.7h-2.5v-3.2c0-.3.2-.5.5-.5h1.6c.3,0,.5.2.5.5v3.2ZM29.7,22c0,.3-.2.5-.5.5h-1.5c-.3,0-.5-.2-.5-.5v-1.6c0-.3.2-.5.5-.5h1.5c.3,0,.5.2.5.5v1.6ZM29.7,18.3c0,.3-.2.5-.5.5h-1.5c-.3,0-.5-.2-.5-.5v-1.5c0-.3.2-.5.5-.5h1.5c.3,0,.5.2.5.5v1.5ZM29.7,14.6c0,.3-.2.5-.5.5h-1.5c-.3,0-.5-.2-.5-.5v-1.6c0-.3.2-.5.5-.5h1.5c.3,0,.5.2.5.5v1.6Z"/>
  <path d="M7.4,22.4l2.1-2.1,5.6,5.6v2.3c.1,0-2.1-.1-2.1-.1l-5.6-5.6ZM6.6,21.6l-1.2-1.2c-.2-.2-.2-.6,0-.8l1.4-1.4c.2-.2.5-.2.8,0l1.2,1.2-2.1,2.1h0Z"/>
</svg>